<svg id="visual" viewBox="0 0 960 540" width="960" height="540" xmlns="http://www.w3.org/2000/svg" xmlns:xlink="http://www.w3.org/1999/xlink" version="1.1"><rect x="0" y="0" width="960" height="540" fill="#000000"></rect><defs><linearGradient id="grad1_0" x1="43.8%" y1="100%" x2="100%" y2="0%"><stop offset="14.444444444444446%" stop-color="#4facf7" stop-opacity="1"></stop><stop offset="85.55555555555554%" stop-color="#4facf7" stop-opacity="1"></stop></linearGradient></defs><defs><linearGradient id="grad1_1" x1="43.8%" y1="100%" x2="100%" y2="0%"><stop offset="14.444444444444446%" stop-color="#4facf7" stop-opacity="1"></stop><stop offset="85.55555555555554%" stop-color="#2692db" stop-opacity="1"></stop></linearGradient></defs><defs><linearGradient id="grad1_2" x1="43.8%" y1="100%" x2="100%" y2="0%"><stop offset="14.444444444444446%" stop-color="#007ac0" stop-opacity="1"></stop><stop offset="85.55555555555554%" stop-color="#2692db" stop-opacity="1"></stop></linearGradient></defs><defs><linearGradient id="grad1_3" x1="43.8%" y1="100%" x2="100%" y2="0%"><stop offset="14.444444444444446%" stop-color="#007ac0" stop-opacity="1"></stop><stop offset="85.55555555555554%" stop-color="#0062a5" stop-opacity="1"></stop></linearGradient></defs><defs><linearGradient id="grad1_4" x1="43.8%" y1="100%" x2="100%" y2="0%"><stop offset="14.444444444444446%" stop-color="#004b8b" stop-opacity="1"></stop><stop offset="85.55555555555554%" stop-color="#0062a5" stop-opacity="1"></stop></linearGradient></defs><defs><linearGradient id="grad1_5" x1="43.8%" y1="100%" x2="100%" y2="0%"><stop offset="14.444444444444446%" stop-color="#004b8b" stop-opacity="1"></stop><stop offset="85.55555555555554%" stop-color="#003572" stop-opacity="1"></stop></linearGradient></defs><defs><linearGradient id="grad1_6" x1="43.8%" y1="100%" x2="100%" y2="0%"><stop offset="14.444444444444446%" stop-color="#00215a" stop-opacity="1"></stop><stop offset="85.55555555555554%" stop-color="#003572" stop-opacity="1"></stop></linearGradient></defs><defs><linearGradient id="grad1_7" x1="43.8%" y1="100%" x2="100%" y2="0%"><stop offset="14.444444444444446%" stop-color="#00215a" stop-opacity="1"></stop><stop offset="85.55555555555554%" stop-color="#000000" stop-opacity="1"></stop></linearGradient></defs><defs><linearGradient id="grad2_0" x1="0%" y1="100%" x2="56.3%" y2="0%"><stop offset="14.444444444444446%" stop-color="#4facf7" stop-opacity="1"></stop><stop offset="85.55555555555554%" stop-color="#4facf7" stop-opacity="1"></stop></linearGradient></defs><defs><linearGradient id="grad2_1" x1="0%" y1="100%" x2="56.3%" y2="0%"><stop offset="14.444444444444446%" stop-color="#2692db" stop-opacity="1"></stop><stop offset="85.55555555555554%" stop-color="#4facf7" stop-opacity="1"></stop></linearGradient></defs><defs><linearGradient id="grad2_2" x1="0%" y1="100%" x2="56.3%" y2="0%"><stop offset="14.444444444444446%" stop-color="#2692db" stop-opacity="1"></stop><stop offset="85.55555555555554%" stop-color="#007ac0" stop-opacity="1"></stop></linearGradient></defs><defs><linearGradient id="grad2_3" x1="0%" y1="100%" x2="56.3%" y2="0%"><stop offset="14.444444444444446%" stop-color="#0062a5" stop-opacity="1"></stop><stop offset="85.55555555555554%" stop-color="#007ac0" stop-opacity="1"></stop></linearGradient></defs><defs><linearGradient id="grad2_4" x1="0%" y1="100%" x2="56.3%" y2="0%"><stop offset="14.444444444444446%" stop-color="#0062a5" stop-opacity="1"></stop><stop offset="85.55555555555554%" stop-color="#004b8b" stop-opacity="1"></stop></linearGradient></defs><defs><linearGradient id="grad2_5" x1="0%" y1="100%" x2="56.3%" y2="0%"><stop offset="14.444444444444446%" stop-color="#003572" stop-opacity="1"></stop><stop offset="85.55555555555554%" stop-color="#004b8b" stop-opacity="1"></stop></linearGradient></defs><defs><linearGradient id="grad2_6" x1="0%" y1="100%" x2="56.3%" y2="0%"><stop offset="14.444444444444446%" stop-color="#003572" stop-opacity="1"></stop><stop offset="85.55555555555554%" stop-color="#00215a" stop-opacity="1"></stop></linearGradient></defs><defs><linearGradient id="grad2_7" x1="0%" y1="100%" x2="56.3%" y2="0%"><stop offset="14.444444444444446%" stop-color="#000000" stop-opacity="1"></stop><stop offset="85.55555555555554%" stop-color="#00215a" stop-opacity="1"></stop></linearGradient></defs><g transform="translate(960, 540)"><path d="M-486 0C-466.9 -33.9 -447.8 -67.7 -431.9 -98.6C-416 -129.4 -403.4 -157.3 -394.6 -190C-385.8 -222.8 -380.9 -260.3 -365.1 -291.2C-349.3 -322 -322.8 -346.1 -296.2 -371.4C-269.6 -396.7 -242.9 -423.3 -210.9 -437.9C-178.8 -452.5 -141.3 -455.1 -105.3 -461.1C-69.2 -467.2 -34.6 -476.6 0 -486L0 0Z" fill="#00184e"></path><path d="M-425.2 0C-408.5 -29.6 -391.8 -59.2 -377.9 -86.3C-364 -113.3 -353 -137.6 -345.3 -166.3C-337.6 -194.9 -333.3 -227.8 -319.5 -254.8C-305.7 -281.7 -282.4 -302.8 -259.1 -324.9C-235.9 -347.1 -212.6 -370.4 -184.5 -383.1C-156.5 -395.9 -123.6 -398.2 -92.1 -403.5C-60.6 -408.8 -30.3 -417 0 -425.2L0 0Z" fill="#002b66"></path><path d="M-364.5 0C-350.2 -25.4 -335.8 -50.8 -323.9 -73.9C-312 -97.1 -302.6 -118 -296 -142.5C-289.4 -167.1 -285.7 -195.3 -273.8 -218.4C-262 -241.5 -242.1 -259.5 -222.1 -278.5C-202.2 -297.5 -182.2 -317.4 -158.2 -328.4C-134.1 -339.4 -106 -341.3 -78.9 -345.9C-51.9 -350.4 -26 -357.4 0 -364.5L0 0Z" fill="#00407f"></path><path d="M-303.7 0C-291.8 -21.2 -279.9 -42.3 -269.9 -61.6C-260 -80.9 -252.1 -98.3 -246.6 -118.8C-241.1 -139.2 -238.1 -162.7 -228.2 -182C-218.3 -201.2 -201.7 -216.3 -185.1 -232.1C-168.5 -247.9 -151.8 -264.5 -131.8 -273.7C-111.8 -282.8 -88.3 -284.4 -65.8 -288.2C-43.3 -292 -21.6 -297.9 0 -303.7L0 0Z" fill="#005698"></path><path d="M-243 0C-233.4 -16.9 -223.9 -33.9 -215.9 -49.3C-208 -64.7 -201.7 -78.7 -197.3 -95C-192.9 -111.4 -190.4 -130.2 -182.6 -145.6C-174.7 -161 -161.4 -173 -148.1 -185.7C-134.8 -198.3 -121.5 -211.6 -105.4 -218.9C-89.4 -226.2 -70.7 -227.6 -52.6 -230.6C-34.6 -233.6 -17.3 -238.3 0 -243L0 0Z" fill="#006eb2"></path><path d="M-182.2 0C-175.1 -12.7 -167.9 -25.4 -162 -37C-156 -48.5 -151.3 -59 -148 -71.3C-144.7 -83.5 -142.8 -97.6 -136.9 -109.2C-131 -120.7 -121 -129.8 -111.1 -139.3C-101.1 -148.8 -91.1 -158.7 -79.1 -164.2C-67.1 -169.7 -53 -170.7 -39.5 -172.9C-26 -175.2 -13 -178.7 0 -182.2L0 0Z" fill="#0086cd"></path><path d="M-121.5 0C-116.7 -8.5 -111.9 -16.9 -108 -24.6C-104 -32.4 -100.9 -39.3 -98.7 -47.5C-96.5 -55.7 -95.2 -65.1 -91.3 -72.8C-87.3 -80.5 -80.7 -86.5 -74 -92.8C-67.4 -99.2 -60.7 -105.8 -52.7 -109.5C-44.7 -113.1 -35.3 -113.8 -26.3 -115.3C-17.3 -116.8 -8.7 -119.1 0 -121.5L0 0Z" fill="#3d9fe9"></path><path d="M-60.7 0C-58.4 -4.2 -56 -8.5 -54 -12.3C-52 -16.2 -50.4 -19.7 -49.3 -23.8C-48.2 -27.8 -47.6 -32.5 -45.6 -36.4C-43.7 -40.2 -40.3 -43.3 -37 -46.4C-33.7 -49.6 -30.4 -52.9 -26.4 -54.7C-22.4 -56.6 -17.7 -56.9 -13.2 -57.6C-8.7 -58.4 -4.3 -59.6 0 -60.7L0 0Z" fill="#4facf7"></path></g><g transform="translate(0, 0)"><path d="M486 0C464.3 32.5 442.6 65 432.9 98.8C423.1 132.6 425.4 167.6 419 201.8C412.5 235.9 397.4 269 378.4 301.8C359.4 334.5 336.5 366.9 303 380C269.6 393 225.6 386.8 191.8 398.2C158 409.6 134.4 438.7 104.1 456.3C73.9 473.8 36.9 479.9 0 486L0 0Z" fill="#00184e"></path><path d="M425.3 0C406.3 28.4 387.3 56.9 378.8 86.4C370.2 116 372.2 146.7 366.6 176.5C361 206.4 347.7 235.4 331.1 264C314.5 292.7 294.4 321 265.1 332.5C235.9 343.9 197.4 338.5 167.8 348.4C138.2 358.4 117.6 383.9 91.1 399.2C64.6 414.6 32.3 419.9 0 425.3L0 0Z" fill="#002b66"></path><path d="M364.5 0C348.2 24.4 331.9 48.8 324.7 74.1C317.4 99.4 319 125.7 314.2 151.3C309.4 176.9 298.1 201.8 283.8 226.3C269.5 250.9 252.4 275.2 227.3 285C202.2 294.8 169.2 290.1 143.8 298.7C118.5 307.2 100.8 329 78.1 342.2C55.4 355.4 27.7 359.9 0 364.5L0 0Z" fill="#00407f"></path><path d="M303.8 0C290.2 20.3 276.6 40.6 270.5 61.7C264.5 82.9 265.9 104.8 261.8 126.1C257.8 147.4 248.4 168.1 236.5 188.6C224.6 209.1 210.3 229.3 189.4 237.5C168.5 245.7 141 241.8 119.9 248.9C98.7 256 84 274.2 65.1 285.2C46.2 296.1 23.1 299.9 0 303.8L0 0Z" fill="#005698"></path><path d="M243 0C232.1 16.3 221.3 32.5 216.4 49.4C211.6 66.3 212.7 83.8 209.5 100.9C206.3 117.9 198.7 134.5 189.2 150.9C179.7 167.3 168.2 183.4 151.5 190C134.8 196.5 112.8 193.4 95.9 199.1C79 204.8 67.2 219.3 52.1 228.1C36.9 236.9 18.5 240 0 243L0 0Z" fill="#006eb2"></path><path d="M182.3 0C174.1 12.2 166 24.4 162.3 37C158.7 49.7 159.5 62.9 157.1 75.7C154.7 88.4 149 100.9 141.9 113.2C134.8 125.4 126.2 137.6 113.6 142.5C101.1 147.4 84.6 145.1 71.9 149.3C59.2 153.6 50.4 164.5 39.1 171.1C27.7 177.7 13.9 180 0 182.3L0 0Z" fill="#0086cd"></path><path d="M121.5 0C116.1 8.1 110.6 16.3 108.2 24.7C105.8 33.1 106.3 41.9 104.7 50.4C103.1 59 99.4 67.3 94.6 75.4C89.8 83.6 84.1 91.7 75.8 95C67.4 98.3 56.4 96.7 47.9 99.6C39.5 102.4 33.6 109.7 26 114.1C18.5 118.5 9.2 120 0 121.5L0 0Z" fill="#3d9fe9"></path><path d="M60.8 0C58 4.1 55.3 8.1 54.1 12.3C52.9 16.6 53.2 21 52.4 25.2C51.6 29.5 49.7 33.6 47.3 37.7C44.9 41.8 42.1 45.9 37.9 47.5C33.7 49.1 28.2 48.4 24 49.8C19.7 51.2 16.8 54.8 13 57C9.2 59.2 4.6 60 0 60.8L0 0Z" fill="#4facf7"></path></g></svg>